<svg xmlns="http://www.w3.org/2000/svg" viewBox="0 0 888.66 541.07"><defs><style>.cls-1{fill:#DD0C39;}.cls-2{font-size:12px;font-family:MyriadPro-Regular, Myriad Pro;}.cls-3{fill:none;stroke:#DD0C39;stroke-miterlimit:10;}</style></defs><g id="Layer_2" data-name="Layer 2"><g id="Object"><path class="cls-1" d="M809.29,410.71l78.5-96.6a3.9,3.9,0,0,0-3-6.36H864.43l7.75-9.55a3.88,3.88,0,0,0-3-6.34H785.55V245.27a3.9,3.9,0,0,0-3.9-3.9H769.94v-12a3.9,3.9,0,0,0-3.9-3.89H712.22L670.42,155l-34.78-12.11-30.18,33.76L544.89,97.85,520.82,123,453.11,0,336.21,148.93,286.58,89.24l-17.66,9.47L253.09,78.8,161.51,225.48H107a3.9,3.9,0,0,0-3.9,3.89v62.49H3.9a3.88,3.88,0,0,0-3,6.34l78.49,96.62L.88,491.43a3.89,3.89,0,0,0,3,6.35H24.24l-7.76,9.55a3.9,3.9,0,0,0,3,6.35H155.72a3.9,3.9,0,0,0,3.77-4.88,303.32,303.32,0,0,1-7.87-43.32H734.89c-1.5,9.26-3.38,18.43-5.72,27.42a3.9,3.9,0,0,0,3.77,4.88h14.47c-.81,3.69-1.68,7.38-2.63,11a3.9,3.9,0,0,0,3.77,4.88H884.77a3.9,3.9,0,0,0,3-6.35ZM639.17,155.58l-1,17.1,26.94-8.43L628.45,187l14.61,10.34-18.5-1.63,18.5,9.1-25-2,8.45,15.59h-36.7Zm-95.14-41-5.2,16,14.29,2.54-20.78,12L544,165.88l-3.81,34.74L531.37,174l-14.62-16.56s7.47,32.47,7.47,33.44-12-27-12-27L507,205.16V178.53L462.2,209.06Zm-157.7-4.76,14.74,7.78-6.95-18,28.58,30.9L401.07,88.6l51.06-68.41V47l-15.6,15.14,15.6,34.21-26.4-19.91,6.49,23.16-17-8.39,21.28,54.06L410,130.53l16.15,16.94,14.28,40.69L423.13,160l-36.37-19.92,19.55,28.14-32.95-19.48,13.4,20.35-18.64-11.26-54.1,45Zm-99.28-8,20.26,27.23-21.65-20.19L288,130.53l-14-21.22Zm-33.58-2.21,40.2,56-40.2-33.23,21.37,33.23,3.25,26-9.74-26-21.49-18.93v40.91l-8.39-29.87-12.33,33.94-44.2,29.89ZM12.08,492l75.33-92.72a3.88,3.88,0,0,0,0-4.9L12.08,301.65h91v8.06H78.38V311h24.73v7.36H58.4v1.29h44.71V327H87.41v1.3h15.7v7.34H69.65v1.3h33.46v7.35H87.41v1.3h15.7v7.35H91.79v1.29h11.32v7.35H78.38v1.3h24.73v7.35H91.79v1.3h11.32v7.34H87.41v1.31h15.7v7.34H87.41v1.3h15.7v7.35H94.59v1.3h8.52v7.34H91.77v1.3h11.34v7.35H89.21v1.29h13.9v7.36H81.78v1.3h21.33v7.34H91.79v1.3h11.32v7.35H87.41v1.3h15.7v7c0,.13.06.24.07.37H85.07v1.3h18.45a3.87,3.87,0,0,0,3.49,2.23h21.11c.18,1.71.5,3.4.71,5.11H111.75V458H129c.31,2.46.65,4.9,1,7.35H66.59v1.29h63.63c.38,2.46.73,4.92,1.16,7.35H111.75v1.3h19.91c.45,2.47,1,4.9,1.51,7.34h-59v1.31h59.24c.58,2.69,1,5.4,1.67,8.06Zm119.57-48.2H110.91V235.26H762.15V443.79H131.65ZM737.94,492c.64-2.66,1.09-5.37,1.67-8.06h59.25v-1.31h-59c.51-2.44,1.07-4.87,1.52-7.34h19.9V474H741.67c.44-2.43.78-4.89,1.16-7.35h63.63v-1.29H743c.37-2.45.71-4.89,1-7.35H761.3v-1.3H744.22c.21-1.71.53-3.4.71-5.11H766a3.86,3.86,0,0,0,3.49-2.23H788v-1.3H769.87c0-.13.07-.24.07-.37v-7h15.71v-1.3H769.94v-7.35h11.33v-1.3H769.94v-7.34h21.34v-1.3H769.94v-7.36h13.9v-1.29h-13.9v-7.35h11.34v-1.3H769.94v-7.34h8.53v-1.3h-8.53v-7.35h15.71v-1.3H769.94v-7.34h15.71v-1.31H769.94v-7.34h11.33v-1.3H769.94v-7.35h24.73v-1.3H769.94v-7.35h11.33v-1.29H769.94v-7.35h15.71v-1.3H769.94v-7.35H803.4v-1.3H769.94V328.3h15.71V327H769.94v-7.35h44.72v-1.29H769.94V311h24.73v-1.29H769.94v-8.06h91l-75.33,92.72a3.88,3.88,0,0,0,0,4.9L861,492Z"/><rect class="cls-1" x="806.46" y="309.71" width="26.77" height="1.29"/><rect class="cls-1" x="794.53" y="344.29" width="17.75" height="1.3"/><rect class="cls-1" x="787.99" y="430.75" width="13.37" height="1.3"/><rect class="cls-1" x="794.3" y="439.4" width="9.09" height="1.3"/><rect class="cls-1" x="773.95" y="456.69" width="21.18" height="1.3"/><rect class="cls-1" x="819.85" y="465.34" width="13.39" height="1.29"/><rect class="cls-1" x="774.74" y="473.98" width="48.23" height="1.3"/><rect class="cls-1" x="39.82" y="309.71" width="26.77" height="1.29"/><rect class="cls-1" x="60.78" y="344.29" width="17.75" height="1.3"/><rect class="cls-1" x="71.71" y="430.75" width="13.36" height="1.3"/><rect class="cls-1" x="69.65" y="439.4" width="9.09" height="1.3"/><rect class="cls-1" x="77.93" y="456.69" width="21.18" height="1.3"/><rect class="cls-1" x="39.82" y="465.34" width="13.39" height="1.29"/><rect class="cls-1" x="50.09" y="473.98" width="48.22" height="1.3"/><text class="cls-2" transform="translate(442.34 538.07)">t</text><path class="cls-1" d="M199.06,389H186.74V344.65h-24V389H150.4V285.51h12.32v41.94h24V285.51h12.32Z"/><path class="cls-1" d="M248.51,367.69h-21.6L222.81,389h-13.1L232,285.51h11.41L265.76,389h-13.1Zm-18.27-17.28h14.95l-7.52-38.74Z"/><path class="cls-1" d="M297.68,351.12h-9.81V389H275.55V285.51h22.22q10.59,0,16.34,8.18t5.75,23.1q0,10.59-2.65,17.66a25,25,0,0,1-8,11.27L322.12,388v1H308.89Zm-9.81-17.27h9.94a8,8,0,0,0,7.18-4.09q2.55-4.08,2.55-11.26T305.14,307a7.92,7.92,0,0,0-7.37-4.19h-9.9Z"/><path class="cls-1" d="M349.52,285.51l15.36,75.07,15.28-75.07h16.18V389H384V360.72l1.23-48.84L369.07,389h-8.46L344.51,312l1.23,48.76V389H333.43V285.51Z"/><path class="cls-1" d="M460.41,339.61a103,103,0,0,1-3.12,26.8q-3.12,11.5-8.93,17.77T435,390.43q-7.42,0-13.26-6.18t-9-17.67a99.42,99.42,0,0,1-3.25-26.4v-5.12a102.42,102.42,0,0,1,3.18-26.91q3.19-11.62,9-17.84T435,284.09q7.47,0,13.29,6.22t9,17.84A102.13,102.13,0,0,1,460.41,335Zm-12.48-4.69q0-16.29-3.37-24.74T435,301.72q-6.19,0-9.57,8.35T422,334.56v5.05q0,15.86,3.36,24.59T435,373q6.21,0,9.53-8.43T447.93,340Z"/><path class="cls-1" d="M522.19,389H509.87l-24-68.1V389H473.57V285.51h12.32l24,68.24V285.51h12.28Z"/><path class="cls-1" d="M550.25,389H537.93V285.51h12.32Z"/><path class="cls-1" d="M615,339.61a103,103,0,0,1-3.12,26.8q-3.12,11.5-8.93,17.77t-13.32,6.25q-7.44,0-13.27-6.18t-9-17.67a99.42,99.42,0,0,1-3.25-26.4v-5.12a102,102,0,0,1,3.19-26.91q3.18-11.62,9-17.84t13.28-6.22q7.49,0,13.29,6.22t9,17.84A102.13,102.13,0,0,1,615,335Zm-12.48-4.69q0-16.29-3.37-24.74t-9.61-8.46q-6.19,0-9.56,8.35t-3.41,24.49v5.05q0,15.86,3.36,24.59t9.7,8.75q6.2,0,9.52-8.43T602.5,340Z"/><path class="cls-1" d="M673.39,285.51v68.17q0,17-6.14,26.87t-16.77,9.88q-10.47,0-16.63-9.59t-6.29-26.37v-69h12.32v68.32q0,10.16,2.82,14.82a8.69,8.69,0,0,0,7.78,4.65q10.38,0,10.55-18.91V285.51Z"/><path class="cls-1" d="M718.7,361.86q0-6-2.46-9.28t-8.87-6.82a52.76,52.76,0,0,1-10.14-7.08Q687,329.16,687,313a38.7,38.7,0,0,1,2.73-15,23.42,23.42,0,0,1,7.84-10.27,19.1,19.1,0,0,1,11.48-3.7,17.76,17.76,0,0,1,11.42,4,25.77,25.77,0,0,1,7.78,11.34,46.66,46.66,0,0,1,2.77,16.63H718.74q0-7.11-2.58-11.05a8.88,8.88,0,0,0-14.3-.64,14,14,0,0,0-2.5,8.7,12.49,12.49,0,0,0,2.94,8.46,28.77,28.77,0,0,0,8.64,6.4q10.51,5.48,15.32,13.58t4.8,20.19q0,13.42-5.87,21.07a18.9,18.9,0,0,1-15.81,7.64,20.07,20.07,0,0,1-12.57-4.37,27.2,27.2,0,0,1-8.64-12,48.22,48.22,0,0,1-3-17.62h12.36q0,17.13,11.83,17.13a8.26,8.26,0,0,0,6.86-3.1Q718.7,367.4,718.7,361.86Z"/><path class="cls-3" d="M204.4,390.47H192.08V346.11h-24v44.36H155.74V287h12.31v41.94h24V287H204.4Z"/><path class="cls-3" d="M253.85,369.14h-21.6l-4.1,21.33h-13.1L237.3,287h11.42l22.38,103.5H258Zm-18.27-17.27h14.95L243,313.13Z"/><path class="cls-3" d="M303,352.58h-9.81v37.89H280.89V287H303.1q10.61,0,16.35,8.17t5.75,23.1q0,10.61-2.65,17.67a25,25,0,0,1-8,11.26l12.94,42.3v1H314.23Zm-9.81-17.28h9.94a8,8,0,0,0,7.18-4.08q2.55-4.1,2.55-11.27t-2.4-11.52a8,8,0,0,0-7.38-4.19h-9.89Z"/><path class="cls-3" d="M354.86,287,370.22,362,385.5,287h16.17v103.5H389.31v-28.3l1.24-48.83-16.14,77.13H366l-16.1-77.06,1.23,48.76v28.3H338.77V287Z"/><path class="cls-3" d="M465.75,341.06a103,103,0,0,1-3.12,26.8q-3.12,11.52-8.93,17.77t-13.33,6.26q-7.42,0-13.26-6.19t-9-17.66a99.49,99.49,0,0,1-3.25-26.41v-5.12a102.34,102.34,0,0,1,3.18-26.9q3.18-11.62,9-17.85t13.28-6.22q7.47,0,13.29,6.22t9,17.85a102.05,102.05,0,0,1,3.18,26.83Zm-12.48-4.69q0-16.28-3.37-24.74t-9.61-8.46q-6.19,0-9.57,8.36T427.31,336v5.05q0,15.85,3.37,24.6t9.69,8.74q6.21,0,9.53-8.42t3.37-24.56Z"/><path class="cls-3" d="M527.53,390.47H515.21l-24-68.1v68.1H478.91V287h12.32l24,68.24V287h12.28Z"/><path class="cls-3" d="M555.59,390.47H543.27V287h12.32Z"/><path class="cls-3" d="M620.32,341.06a103,103,0,0,1-3.12,26.8q-3.12,11.52-8.93,17.77t-13.33,6.26q-7.43,0-13.26-6.19t-9-17.66a99.49,99.49,0,0,1-3.25-26.41v-5.12a101.89,101.89,0,0,1,3.19-26.9q3.18-11.62,9-17.85t13.28-6.22q7.49,0,13.29,6.22t9,17.85a102.05,102.05,0,0,1,3.18,26.83Zm-12.48-4.69q0-16.28-3.37-24.74t-9.61-8.46q-6.2,0-9.57,8.36T581.89,336v5.05q0,15.85,3.36,24.6t9.69,8.74q6.21,0,9.53-8.42t3.37-24.56Z"/><path class="cls-3" d="M678.73,287v68.17q0,17-6.14,26.87t-16.77,9.88q-10.47,0-16.63-9.6t-6.29-26.37V287h12.32v68.31q0,10.17,2.82,14.82a8.69,8.69,0,0,0,7.78,4.66q10.38,0,10.55-18.91V287Z"/><path class="cls-3" d="M724,363.31q0-6-2.46-9.27t-8.87-6.83a53.19,53.19,0,0,1-10.15-7.07q-10.18-9.52-10.18-25.66a38.76,38.76,0,0,1,2.73-15A23.47,23.47,0,0,1,703,289.24a19.17,19.17,0,0,1,11.48-3.7,17.76,17.76,0,0,1,11.42,4,25.88,25.88,0,0,1,7.78,11.34,46.7,46.7,0,0,1,2.77,16.63H724.08q0-7.09-2.58-11a8.23,8.23,0,0,0-7.27-4,8.33,8.33,0,0,0-7,3.31,14,14,0,0,0-2.5,8.71,12.52,12.52,0,0,0,2.94,8.46,28.92,28.92,0,0,0,8.64,6.39Q726.8,334.88,731.6,343t4.8,20.19q0,13.44-5.87,21.08a18.93,18.93,0,0,1-15.81,7.64,20.13,20.13,0,0,1-12.57-4.37,27.32,27.32,0,0,1-8.64-12,48.06,48.06,0,0,1-3-17.63h12.36q0,17.13,11.83,17.13a8.28,8.28,0,0,0,6.86-3.09Q724,368.86,724,363.31Z"/><path class="cls-1" d="M227.84,487.2H215v34.72H204.75V487.2H192.18v-7.94h35.66Z"/><path class="cls-1" d="M252,499.16l-3.25-.24q-4.67,0-6,2.93v20.07h-9.87v-31.7h9.25l.33,4.07c1.66-3.1,4-4.66,6.94-4.66a9.4,9.4,0,0,1,2.75.36Z"/><path class="cls-1" d="M275.52,521.92a11,11,0,0,1-.93-2.84,9.21,9.21,0,0,1-7.62,3.43,11.28,11.28,0,0,1-7.62-2.71,8.63,8.63,0,0,1-3.13-6.82,8.87,8.87,0,0,1,3.81-7.79q3.81-2.64,11.07-2.64h3v-1.67q0-4.39-3.78-4.39-3.53,0-3.52,3.47H257a8.84,8.84,0,0,1,3.91-7.46,16.45,16.45,0,0,1,10-2.87q6.06,0,9.58,3a10.32,10.32,0,0,1,3.6,8.12v14a14.37,14.37,0,0,0,1.35,6.68v.5Zm-6.18-6.45a5.48,5.48,0,0,0,3.06-.79,4.93,4.93,0,0,0,1.75-1.78v-5.07h-2.87q-5.16,0-5.16,4.63a2.81,2.81,0,0,0,.91,2.18A3.26,3.26,0,0,0,269.34,515.47Z"/><path class="cls-1" d="M304.72,510.17l5-19.95h10.4l-10.35,31.7H299.71l-10.35-31.7h10.43Z"/><path class="cls-1" d="M341,522.51q-7.3,0-11.81-4.35a15,15,0,0,1-4.51-11.33V506a19.47,19.47,0,0,1,1.8-8.58,13.17,13.17,0,0,1,5.26-5.76,15.84,15.84,0,0,1,8.2-2q6.69,0,10.55,4.15t3.87,11.56v3.84H334.76a7.15,7.15,0,0,0,2.31,4.19,6.92,6.92,0,0,0,4.63,1.52,8.84,8.84,0,0,0,7.32-3.28l4.52,5.33a12.68,12.68,0,0,1-5.23,4.06A17.81,17.81,0,0,1,341,522.51Zm-1.12-25.26c-2.89,0-4.61,1.92-5.15,5.74h10v-.76a4.86,4.86,0,0,0-1.2-3.67A4.78,4.78,0,0,0,339.91,497.25Z"/><path class="cls-1" d="M371.77,521.92h-9.9v-45h9.9Z"/><path class="cls-1" d="M405.13,499.45a28,28,0,0,1-2.71-4.69,11.35,11.35,0,0,1-1-4.6,11,11,0,0,1,3.34-8.33,12.15,12.15,0,0,1,8.73-3.18,11.28,11.28,0,0,1,8,2.94,9.59,9.59,0,0,1,3.17,7.31q0,5.46-6,9.67l-2.23,1.55,6.57,7.53a15.62,15.62,0,0,0,1.61-7.06h8.29q0,8.64-4,13.86l6.51,7.47h-11l-2-2.26a20.25,20.25,0,0,1-5,2.17,21.73,21.73,0,0,1-5.78.71q-6.33,0-10.14-3.33a11,11,0,0,1-3.81-8.74,10,10,0,0,1,1.51-5.37,23.29,23.29,0,0,1,5.88-5.59Zm7.12,15.47a10.71,10.71,0,0,0,4.93-1.2L409.5,505l-.26.17a7.11,7.11,0,0,0-1.67,4.63,5.24,5.24,0,0,0,1.34,3.63A4.32,4.32,0,0,0,412.25,514.92ZM410,490.05q0,2,2.22,5l2-1.23a6.72,6.72,0,0,0,2-1.82,4.26,4.26,0,0,0,.62-2.37,3.35,3.35,0,0,0-.94-2.35,3.08,3.08,0,0,0-2.32-1,3.25,3.25,0,0,0-2.57,1A3.9,3.9,0,0,0,410,490.05Z"/><path class="cls-1" d="M492.35,487.2H479.54v34.72H469.26V487.2H456.69v-7.94h35.66Z"/><path class="cls-1" d="M491.89,505.78a18.68,18.68,0,0,1,1.84-8.45,13.14,13.14,0,0,1,5.31-5.7,15.94,15.94,0,0,1,8.11-2q7.13,0,11.22,4.41t4.1,12v.35q0,7.41-4.11,11.77t-11.15,4.35q-6.76,0-10.87-4.06t-4.42-11Zm9.87.61q0,4.39,1.38,6.45a4.58,4.58,0,0,0,4.07,2q5.28,0,5.39-8.12v-1q0-8.53-5.45-8.53-4.95,0-5.36,7.36Z"/><path class="cls-1" d="M548.71,518.49a10.19,10.19,0,0,1-8.47,4q-5.22,0-7.9-3c-1.78-2-2.68-4.92-2.68-8.71V490.22h9.88v20.6c0,2.71,1.31,4.07,4,4.07a5.17,5.17,0,0,0,4.84-2.43V490.22h9.93v31.7H549Z"/><path class="cls-1" d="M585.84,499.16l-3.25-.24q-4.67,0-6,2.93v20.07h-9.87v-31.7H576l.33,4.07c1.66-3.1,4-4.66,6.94-4.66A9.4,9.4,0,0,1,586,490Z"/><path class="cls-1" d="M592.32,482.05a4.4,4.4,0,0,1,1.53-3.46,6.47,6.47,0,0,1,7.91,0,4.69,4.69,0,0,1,0,6.91,6.47,6.47,0,0,1-7.91,0A4.38,4.38,0,0,1,592.32,482.05Zm10.49,39.87h-9.9v-31.7h9.9Z"/><path class="cls-1" d="M628.49,513a2.28,2.28,0,0,0-1.32-2,20.15,20.15,0,0,0-5-1.58,22.87,22.87,0,0,1-6.09-2.15A10.18,10.18,0,0,1,612.4,504a7.72,7.72,0,0,1-1.26-4.37,8.78,8.78,0,0,1,3.61-7.19,14.85,14.85,0,0,1,9.43-2.83q6.27,0,10.08,2.85a8.87,8.87,0,0,1,3.81,7.47h-9.9q0-3.81-4-3.81a4,4,0,0,0-2.61.86,2.7,2.7,0,0,0-1,2.16,2.46,2.46,0,0,0,1.29,2.14,12.32,12.32,0,0,0,4.11,1.34,34.8,34.8,0,0,1,5,1.26q7.15,2.46,7.15,8.82a8.29,8.29,0,0,1-3.85,7.06,16.89,16.89,0,0,1-10,2.73,17.15,17.15,0,0,1-7.26-1.47,12.15,12.15,0,0,1-5-4,9,9,0,0,1-1.79-5.31h9.23a3.8,3.8,0,0,0,1.46,3.21,6,6,0,0,0,3.6,1,4.75,4.75,0,0,0,3-.82A2.63,2.63,0,0,0,628.49,513Z"/><path class="cls-1" d="M655,490.22l.33,3.72a10.89,10.89,0,0,1,9.05-4.31q6,0,8.11,4.78a10.57,10.57,0,0,1,9.32-4.78q9.65,0,9.9,11.67v20.62h-9.9v-20a6,6,0,0,0-.82-3.54,3.47,3.47,0,0,0-3-1.12,4.67,4.67,0,0,0-4.36,2.61l0,.41v21.65h-9.91V502a6.31,6.31,0,0,0-.79-3.6c-.52-.75-1.53-1.12-3-1.12a4.74,4.74,0,0,0-4.34,2.61v22.06H645.7v-31.7Z"/></g></g></svg>